<?xml version="1.0" encoding="utf-8"?>
<!-- Generator: Adobe Illustrator 22.0.1, SVG Export Plug-In . SVG Version: 6.00 Build 0)  -->
<svg version="1.1" id="Layer_1" xmlns="http://www.w3.org/2000/svg" xmlns:xlink="http://www.w3.org/1999/xlink" x="0px" y="0px"
	 viewBox="0 0 1182 210" style="enable-background:new 0 0 1182 210;" xml:space="preserve">
<g>
	<path d="M803.6-0.2c8.7,2.6,17.9,4.1,26,8.1c7.4,3.6,13.5,9.8,21.1,15.6c-7.3,5.5-13.2,9.9-19.1,14.3C812,13.7,786.2,19,772.2,32.3
		c-15.2,14.4-16.3,38.9-2.4,54.7c16.8,18.9,38.2,18.3,62.2-2.1c5.6,4,11.2,8.1,17.2,12.5c-5.4,7.4-12,12.8-19.6,16.9
		c-35.6,18.9-82.6,0.9-91.5-40.6c-7.5-34.8,16.8-68.8,52.1-72.9c1.5-0.2,2.9-0.6,4.3-0.9C797.6-0.2,800.6-0.2,803.6-0.2z"/>
	<path d="M56.6-0.2c19,39.5,38,79,57.5,119.4c-8,0-15.2,0.1-22.5-0.1c-1,0-2.2-1.8-2.8-3c-2.2-4.3-4.5-8.5-6.3-13
		c-1.6-4.1-3.8-5.7-8.5-5.5c-12.5,0.4-25,0.2-37.5,0.1c-3.2,0-4.8,1.1-6,3.9c-2.2,5-4.5,10-7.1,14.8c-0.7,1.3-2.6,2.7-3.9,2.8
		c-7,0.2-14-0.1-21-0.2c0-0.3,0-0.7,0-1C4.4,105.9,10.4,94,16.2,82.1C29.3,54.7,42.4,27.2,55.6-0.2C55.9-0.2,56.2-0.2,56.6-0.2z
		 M70.2,77.5c-4.8-9.9-9.2-19.2-14-29.1c-4.8,10.1-9.3,19.4-14,29.1C51.8,77.5,60.6,77.5,70.2,77.5z"/>
	<path d="M960.6-0.2c3.6,8,7.1,16,10.8,23.9c14.4,30.1,29,60.2,43.4,90.3c0.6,1.3,1.2,2.7,2.2,5c-7.8,0-15,0.1-22.2-0.1
		c-1,0-2.2-1.9-2.8-3.1c-2.6-5-4.8-10.3-7.6-15.2c-0.8-1.5-3.1-3-4.8-3.1c-13.5-0.2-27-0.2-40.5,0c-1.6,0-3.9,1.5-4.8,3
		c-2.8,4.9-5.2,10-7.5,15.2c-1.1,2.5-2.5,3.5-5.3,3.4c-6.3-0.2-12.6-0.1-19.9-0.1c3.3-7,6.3-13.2,9.3-19.5
		c15.4-32.1,30.9-64.1,46.3-96.2c0.6-1.2,0.8-2.5,1.2-3.7C959.2-0.2,959.9-0.2,960.6-0.2z M973.5,77.5c-4.7-9.7-9.2-19-14.1-29.2
		c-4.9,10.3-9.4,19.6-14,29.2C955.1,77.5,964,77.5,973.5,77.5z"/>
	<path d="M1180.6,118.8c-6.7,0.1-13.3,0.3-20,0.3c-21,0-41.9,0-62.9,0c-2,0-3.9,0-6.2,0c0-38.9,0-77.3,0-116.1c6.9,0,13.8,0,21.3,0
		c0,31.6,0,63.1,0,95.1c2.3,0.1,4.1,0.3,5.9,0.3c18.5,0,37,0,55.4,0c2.2,0,4.3,0.2,6.5,0.3C1180.6,105.4,1180.6,112.1,1180.6,118.8z
		"/>
	<path d="M687.6,209.8c3.4-9.8,6.8-19.7,10.4-29.4c0.5-1.4,2.2-2.4,3.3-3.5c1.1,1.1,2.9,2.1,3.3,3.4c3.4,9.8,6.6,19.7,9.9,29.5
		c-1.3,0-2.7,0-4,0c-1.1-2.9-2.2-5.8-3.3-8.7c-12-1-12.1-1-14.7,8.2c0,0.1,0,0.3,0,0.5C690.9,209.8,689.2,209.8,687.6,209.8z
		 M701.8,184.7c-0.4,0-0.7,0.1-1.1,0.1c-1.1,3.7-2.3,7.3-3.5,11.3c3.1,0,5.5,0,8.4,0C704.3,192,703.1,188.4,701.8,184.7z"/>
	<path d="M353.6,209.8c2.3-4.7,4.5-9.5,7.1-14c1.6-2.8,2-4.9,0.1-7.6c-2.4-3.4-4.2-7.1-6.4-10.9c8.2-1.9,7.2,6.3,11.1,8.9
		c4.3-1.9,3-11,11.3-8.8c-2.3,4-4.2,7.8-6.6,11.3c-1.7,2.5-1.3,4.3,0.1,6.7c2.7,4.7,4.9,9.6,7.3,14.4c-1.3,0-2.7,0-4,0
		c-2.6-4.1-5.2-8.2-8-12.7c-2.9,4.7-5.5,8.7-8,12.7C356.2,209.8,354.9,209.8,353.6,209.8z"/>
	<path d="M411.6,209.8c0-1.3,0-2.5,0-4c2.6-0.2,4.7-0.3,7.3-0.5c0-8.1,0-16.1,0-23.9c-2-2.3-7.2,1.9-7.3-4.3c6.6,0,13,0,19.4,0
		c0.3,3,0.3,3-6.9,4.1c0,7.8,0,15.7,0,23.9c2.5,0.2,4.7,0.4,7.5,0.7c0,1.4,0,2.7,0,3.9C424.9,209.8,418.2,209.8,411.6,209.8z"/>
	<path d="M467.6,209.8c0.1-1.3,0.1-2.6,0.2-4c2.4-0.2,4.5-0.3,7.1-0.5c0-7.9,0-15.8,0-23.8c-1.5-2.5-7.5,2.1-7.2-4.6
		c5.8,0,11.5-0.1,17.1,0.1c0.9,0,1.8,1.2,2.7,1.9c-0.9,0.6-1.8,1.6-2.8,1.8c-1.4,0.3-3,0.1-4.8,0.1c0,8.2,0,16.1,0,24.5
		c2.3,0.2,4.7,0.3,7.4,0.5c0.1,1.5,0.2,2.7,0.3,4C480.9,209.8,474.2,209.8,467.6,209.8z"/>
	<path d="M579.6,209.8c0.1-1.3,0.1-2.6,0.2-4c2.4-0.2,4.5-0.3,7.1-0.5c0-7.9,0-15.8,0-23.8c-1.5-2.5-7.5,2.1-7.2-4.6
		c5.8,0,11.5-0.1,17.1,0.1c0.9,0,1.8,1.2,2.7,1.9c-0.9,0.6-1.8,1.6-2.8,1.8c-1.4,0.3-3,0.1-4.8,0.1c0,8.2,0,16.1,0,24.5
		c2.3,0.2,4.7,0.3,7.4,0.5c0.1,1.5,0.2,2.7,0.3,4C592.9,209.8,586.2,209.8,579.6,209.8z"/>
	<path d="M811.6,209.8c-0.1-0.3-0.3-0.6-0.3-0.9c1.3-11.1-4.1-20.1-9.2-29.2c-0.4-0.7-0.5-1.5-1-3.2c8.8,1.6,7.7,10.3,12.3,14.3
		c4.9-3.4,3.2-13.1,12.9-14.4c-2.6,5-4.5,9.2-6.9,13.1c-2.9,4.7-4.3,9.5-3.9,15.1c0.2,1.7-0.6,3.5-0.9,5.2
		C813.6,209.8,812.6,209.8,811.6,209.8z"/>
	<path d="M643.6,209.8c0-9.3,0-18.5,0-28.6c-3.1,0-5.4,0.2-7.6-0.1c-1-0.1-1.8-1.2-2.8-1.9c1-0.8,1.9-2.2,2.9-2.3
		c6.9-0.2,13.9-0.1,20.8-0.1c0.6,3.6,0.6,3.6-9.3,4.9c0,9.3,0,18.6,0,28C646.2,209.8,644.9,209.8,643.6,209.8z"/>
	<path d="M498.3,82.7c0,12.4,0,24.1,0,36.2c-7.4,0-14.3,0-21.5,0c0-38.6,0-77,0-115.8c1.2-0.1,2.5-0.4,3.7-0.4
		c15.2,0,30.3-0.1,45.5,0c20.8,0.2,36.6,15.6,38,36.7c1.4,21.8-11.8,39.2-32.4,42.3c-4.1,0.6-8.3,0.8-12.4,0.9
		C512.5,82.9,505.8,82.7,498.3,82.7z M498.8,23.9c0,12.8,0,25.2,0,37.8c1.7,0,3,0,4.4,0c6.5,0,13,0.3,19.4-0.1
		C534,61,541.4,54,541.8,44c0.4-10.7-5.6-18.9-16-19.9C516.9,23.2,507.9,23.9,498.8,23.9z"/>
	<path d="M299.2,2.7c8.1,0,15.3-0.2,22.4,0.1c1.7,0.1,3.9,1.7,4.8,3.2c8.2,14.3,16.1,28.7,24.2,43.1c0.9,1.6,1.8,3.1,3,5.2
		c1-1.6,1.8-2.8,2.5-4c8.2-14.7,16.4-29.3,24.5-44c1.5-2.7,3.2-3.7,6.2-3.6c6.8,0.2,13.6,0.1,21.4,0.1c-1.4,2.5-2.4,4.3-3.5,6
		c-12.4,20.7-24.9,41.3-37.1,62.1c-1.8,3.1-2.8,7.1-2.9,10.7c-0.3,12.3-0.1,24.6-0.1,37.3c-7.4,0-14.4,0-22,0
		c0-10.1-0.5-20.1,0.1-30c0.6-9.2-1.9-17-6.8-24.8c-11.7-18.5-22.7-37.6-34-56.4C301.1,6.3,300.4,4.9,299.2,2.7z"/>
	<path d="M204.7,119c-7.7,0-14.5,0-22,0c0-31.7,0-63.2,0-95.3c-11.5,0-22.4,0-33.7,0c0-7.1,0-13.6,0-20.6c29.5,0,59.2,0,89.3,0
		c0,6.4,0,13,0,20.2c-10.9,0-22,0-33.6,0C204.7,55.5,204.7,87.1,204.7,119z"/>
	<path d="M638.7,3c7.4,0,14.3,0,21.5,0c0,38.7,0,77.1,0,115.9c-7.2,0-14.2,0-21.5,0C638.7,80.2,638.7,41.8,638.7,3z"/>
	<path d="M749.6,209c0-10.9,0-21.2,0-31.4c3.7-0.2,3.8-0.2,3.8,3.4c0.1,8,0,15.9,0,24.6c4.6,0,8.9-0.1,13.1,0.1c1,0,2,1,3,1.6
		c-1,0.6-2,1.6-3,1.6C761.1,209,755.6,209,749.6,209z"/>
</g>

    <animate id="animation1"
             attributeName="opacity"
             from="0" to="1" dur="1s"
             begin="0s;animation2.end" />

</svg>
